<svg width="400" height="300" xmlns="http://www.w3.org/2000/svg" data-name="Layer 1">
 <title>#139_authentication_twocolour</title>

 <g>
  <title>Layer 1</title>
  <path id="svg_43" opacity="0.12" stroke-dasharray="2 10" stroke-width="2" stroke-linejoin="round" stroke-linecap="round" stroke="#000" fill="#fcfcfc" d="m50,173.16999s-28.36,-108.19 34,-139.17c14.08,-7 103.19,-25 187.38,18.17"/>
  <path id="svg_1" fill="#12192c" d="m85.61,131.19s-10.28,9.37 -5.94,26.37c3,11.63 12.16,42.13 -20.84,41.31l0.84,7.52s33.07,4.33 38.33,-23.83c6,-31.83 -12.39,-51.37 -12.39,-51.37z"/>
  <path id="svg_2" fill="#a370f7" d="m85.61,131.19s-10.28,9.37 -5.94,26.37c3,11.63 12.16,42.13 -20.84,41.31l0.84,7.52s33.07,4.33 38.33,-23.83c6,-31.83 -12.39,-51.37 -12.39,-51.37z"/>
  <rect id="svg_3" opacity="0.27" fill="#cccccc" height="138.44" width="213.07" y="71.06999" x="98.39"/>
  <polygon id="svg_4" fill="#c29ffa" points="191.83 192.2 183.73 243.61 237.71 243.61 225.3 192.2 191.83 192.2"/>
  <ellipse id="svg_5" opacity="0.27" fill="#cccccc" ry="8.04" rx="136.85" cy="254.08" cx="209.37"/>
  <rect id="svg_6" fill="#e0cffc" height="31.62" width="213.07" y="176.39" x="101.39"/>
  <circle id="svg_7" fill="#c29ffa" r="8.56" cy="190.32" cx="209.12"/>
  <rect id="svg_8" fill="#e0cffc" height="16.52" width="75.91" y="234.6" x="171.42"/>
  <path id="svg_9" opacity="0.4" fill="#c29ffa" d="m101.43,102s8.55,-5.11 10.89,4.13s4.1,19.48 12.23,21.89s-20.39,-7.65 -20.39,-7.65l-2.73,-18.37z"/>
  <circle id="svg_10" fill="#a370f7" r="3.73" cy="83.38" cx="118.72"/>
  <circle id="svg_11" fill="#6610f2" r="3.73" cy="83.87999" cx="129.81"/>
  <circle id="svg_12" fill="#9cf210" r="3.73" cy="83.38" cx="140.26"/>
  <path id="svg_13" fill="#6610f2" d="m90.63,247.68s-1.89,2.68 -4.64,2.17s-4.17,1.93 -1.94,3.28s9.31,-0.06 9.31,-0.06l0.89,-3.93l-3.62,-1.46z"/>
  <path id="svg_14" opacity="0.4" fill="#c29ffa" d="m139.12,131.19s10.06,0.05 13.21,20.78s6.92,55.15 -27.78,55.51l0,0l0,-24.63l14.57,-51.66z"/>
  <path id="svg_15" fill="#6610f2" d="m109.56,120.4s28.38,0 31.72,15.75s-14.76,62.85 -14.76,62.85l-32,-1.38s1.34,-17.52 -3.49,-31.69s-22.84,-39.63 18.53,-45.53z"/>
  <path id="svg_16" opacity="0.08" d="m124.55,138.05s-9,9.07 -4.46,23.44s-26.73,14 -26.73,14a91,91 0 0 1 1,9.07s13.64,10.25 34.64,7.62l1.26,-3.6l5.39,-13.24l-11.1,-37.29z"/>
  <path id="svg_17" fill="#f4a28c" d="m90.28,104.7s1.89,5.78 4.4,9.08a3.05,3.05 0 0 0 4.29,0.57a6.72,6.72 0 0 0 2.86,-6.73l-0.4,-5.59a5.45,5.45 0 0 0 -4.49,-4.42c-4.12,-0.93 -7.94,3.63 -6.66,7.09z"/>
  <polygon id="svg_18" fill="#f4a28c" points="102.64 105.14 109.56 120.4 100.55 127.09 98.75 112.73 102.64 105.14"/>
  <path id="svg_19" fill="#8540f5" d="m91.77,104.84999a24.65,24.65 0 0 0 5,-2.59a5.05,5.05 0 0 0 2.18,5.11a4.12,4.12 0 0 0 5.23,-0.43l-3.18,-7.14a6.18,6.18 0 0 0 -5,-3.85a21.33,21.33 0 0 0 -2.9,-0.15c-2.42,0 -4.86,2.71 -7.31,2.11a1.46,1.46 0 0 0 -1.79,1.79c0.61,2.32 2.46,5.59 5.92,5.53a5.87,5.87 0 0 0 1.85,-0.38z"/>
  <path id="svg_20" fill="#f4a28c" d="m98.26,107s-0.87,-2.17 0.81,-2.69s3,2.61 0.9,3.83l-1.71,-1.14z"/>
  <path id="svg_22" opacity="0.31" fill="#ce8172" d="m99,114.35s2.06,-2.83 2.07,-4.66a8.94,8.94 0 0 1 -1.43,9.89l-0.64,-5.23z"/>
  <path id="svg_23" fill="#12192c" d="m127.16,133.19a8.1,8.1 0 0 1 13.54,2.21c3.83,9 8.22,25 1.66,42.38c-10,26.57 -49.62,-2.76 -49.62,-2.76l6,-6.5s20.84,9.85 29.11,4.73c6.86,-4.25 -10.98,-28.11 -0.69,-40.06z"/>
  <path id="svg_24" fill="#a370f7" d="m127.16,133.68999a8.1,8.1 0 0 1 13.54,2.21c3.83,9 8.22,25 1.66,42.38c-10,26.57 -49.62,-2.76 -49.62,-2.76l6,-6.5s20.84,9.85 29.11,4.73c6.86,-4.25 -10.98,-28.11 -0.69,-40.06z"/>
  <path id="svg_25" fill="#f4a28c" d="m93.56,174.13s-6.94,-1.36 -7.46,-6.87s7.61,2.62 9.05,0s4.18,-2.72 3.54,1.26l-5.13,5.61z"/>
  <path id="svg_26" fill="#6610f2" d="m118.78,236.28s2.44,2.19 1.6,4.86s1.41,4.38 3,2.33s1.08,-9.25 1.08,-9.25l-3.79,-1.36l-1.89,3.42z"/>
  <path id="svg_27" fill="#8540f5" d="m94.74999,247.14003l-5.42,-1.46l15.33,-42.88l-6.16,-7.07l28.52,1.27a18.31,18.31 0 0 1 -6.87,13.31a41.73,41.73 0 0 0 -7.13,7.05a166,166 0 0 0 -18.27,29.78z"/>
  <path id="svg_28" fill="#8540f5" d="m93.98001,196.07002l-0.85,20.9a9.88,9.88 0 0 0 5.62,9.34l20,9.57l2,-4.83l-11.62,-8.44a8.73,8.73 0 0 1 -3.15,-9.83l5.31,-16l-17.31,-0.71z"/>
  <path id="svg_29" fill="#12192c" d="m219.26,113.87l-5.2,0l0,-12.17a7.51,7.51 0 1 0 -15,0l0,12.17l-5.21,0l0,-12.17a12.72,12.72 0 0 1 25.43,0l-0.02,12.17z"/>
  <path id="svg_30" opacity="0.58" fill="#a370f7" d="m219.26,113.87l-5.2,0l0,-12.17a7.51,7.51 0 1 0 -15,0l0,12.17l-5.21,0l0,-12.17a12.72,12.72 0 0 1 25.43,0l-0.02,12.17z"/>
  <rect id="svg_31" fill="#6610f2" height="31.01" width="38.9" y="106.57" x="187.1"/>
  <path id="svg_32" fill="#8540f5" d="m210.08,115.84a4.11,4.11 0 1 0 -8.21,0a4,4 0 0 0 1.33,3l0,8.72l5.64,0l0,-8.78a4.13,4.13 0 0 0 1.24,-2.94z"/>
  <rect id="svg_33" fill="#ffffff" height="15.64" width="73.67" y="147.45" x="169.71"/>
  <rect id="svg_34" fill="#9cf210" height="15.64" width="22.74" y="147.45" x="220.64"/>
  <circle id="svg_35" fill="#6610f2" r="2.15" cy="155.4" cx="179.15"/>
  <circle id="svg_36" fill="#6610f2" r="2.15" cy="155.4" cx="187.14"/>
  <circle id="svg_37" fill="#6610f2" r="2.15" cy="155.4" cx="194.94"/>
  <circle id="svg_38" fill="#6610f2" r="2.15" cy="155.4" cx="202.93"/>
  <circle id="svg_39" fill="#6610f2" r="2.15" cy="155.4" cx="211.1"/>
  <path id="svg_40" fill="#f4a28c" d="m59.49,204.81s-10,0.28 -9.49,-5.86s8.83,-0.08 8.83,-0.08l0.66,5.94z"/>
  <rect id="svg_41" transform="rotate(-57.52 -138.85 134.73)" fill="#9cf210" height="19.11" width="11.07" y="319.03" x="-91.07001"/>
  <rect id="svg_42" opacity="0.4" fill="#c29ffa" height="17.16" width="31.74" y="107.99" x="282.73"/>
  <path id="svg_44" opacity="0.58" fill="#a370f7" d="m322.33,241.51s-8.51,-2.33 -10.36,-10.26c0,0 13.19,-2.66 13.56,11l-3.2,-0.74z"/>
  <path id="svg_45" fill="#8540f5" d="m323.38,240.66s-5.95,-9.4 -0.72,-18.2c0,0 10,6.37 5.58,18.22l-4.86,-0.02z"/>
  <path id="svg_46" fill="#6610f2" d="m324.91,240.67s3.14,-9.93 12.64,-11.82c0,0 1.79,6.45 -6.15,11.84l-6.49,-0.02z"/>
  <polygon id="svg_47" fill="#520dc2" points="318.73 240.44 320.46 252.25 331.33 252.3 332.93 240.5 318.73 240.44"/>
  <rect id="svg_48" fill="#8540f5" height="53.17" width="53.17" y="56.42" x="277"/>
  <polyline id="svg_49" stroke-width="5" stroke-linejoin="round" stroke-linecap="round" stroke="#fff" fill="none" points="291.17 82.5 297.35 92.78 312.17 73.22"/>
  <path id="svg_21" fill="#f4a28c" d="m91.66,108.28l-0.66,2.82a1,1 0 0 0 1.15,1.16l2.31,-0.5l-2.8,-3.48z"/>
 </g>
</svg>